<svg xmlns="http://www.w3.org/2000/svg" width="64" height="47">
  <path fill-rule="evenodd" d="M57.9710145 16.8115942L31.884058 28.9855072 5.79710145 16.8115942v20.8695652c-.0003496.7688506.30492027 1.5063115.84857978 2.049971.5436595.5436595 1.28112037.8489293 2.04997094.8485797H55.0724638c.7688505.0003496 1.5063114-.3049202 2.0499709-.8485797.5436595-.5436595.8489294-1.2811204.8485798-2.049971V16.8115942zm0-8.11594203c.0003496-.76885057-.3049203-1.50631143-.8485798-2.04997094-.5436595-.5436595-1.2811204-.84892938-2.0499709-.84857978H8.69565217c-.76885057-.0003496-1.50631143.30492027-2.04997094.84857978-.5436595.5436595-.84892938 1.28112037-.84857978 2.04997094v1.73913043L31.884058 22.6086957l26.0869565-12.1739131V8.69565217zM55.0724638 46.3768116H8.69565217c-2.30645664.0007384-4.51865885-.9151709-6.14957007-2.5460821C.9151709 42.1998183-.00073842 39.9876161 0 37.6811594V8.69565217C-.00073842 6.38919553.9151709 4.17699332 2.5460821 2.5460821 4.17699332.9151709 6.38919553-.00073842 8.69565217 0H55.0724638c2.3064566-.00073842 4.5186588.9151709 6.14957 2.5460821 1.6309113 1.63091122 2.5468206 3.84311343 2.5460821 6.14957007V37.6811594c.0007385 2.3064567-.9151708 4.5186589-2.5460821 6.1495701-1.6309112 1.6309112-3.8431134 2.5468205-6.14957 2.5460821z"/>
</svg>
