<svg xmlns="http://www.w3.org/2000/svg" width="48" height="64">
  <path fill-rule="evenodd" d="M23.9557647 34.4781176c-2.0452744-.0530475-3.8989367 1.1974107-4.6157158 3.1137064-.7167791 1.9162957-.1387811 4.0763022 1.4392452 5.3785289v7.0588236c-.0426108 1.1151673.5280278 2.1643537 1.4873141 2.7346024.9592864.5702487 2.1536149.5702487 3.1129012 0 .9592864-.5702487 1.529925-1.6194351 1.4873141-2.7346024v-7.0588236c1.5404383-1.2713553 2.131614-3.3643454 1.4839464-5.2537424-.6476676-1.889397-2.3985533-3.1795504-4.3950052-3.2384929zM6.61741176 27.7722353H41.0287059c.1453621-.0189966.2913085.0305507.3950612.1341191.1037526.1035683.1535592.2494264.1348211.3948221V56.912c.0187381.1453957-.0310685.2912538-.1348211.3948221-.1037527.1035684-.2496991.1531156-.3950612.1341191H6.61741176c-.1452169.018344-.2907651-.0314167-.39435695-.1348246-.1035918-.1034078-.15361116-.2488673-.1355254-.3941166V28.3011765c-.01808576-.1452493.0319336-.2907088.1355254-.3941167.10359187-.1034078.24914008-.1531685.39435698-.1348245zM23.8230588 6.0884706c2.49915-.02302904 4.9026426.9595814 6.6698835 2.72682236 1.767241 1.76724094 2.7498514 4.17073354 2.7268224 6.66988354v6.1769411H14.4263529v-6.1769411c-.023029-2.49915.9595815-4.9026426 2.7268224-6.66988354 1.767241-1.76724095 4.1707335-2.7498514 6.6698835-2.72682237zm0-6.0884706C15.2786248.01878418 8.35666653 6.9407424 8.33788235 15.4851765v6.1769411h-1.7204706C2.96951445 21.6986172.02458578 24.6531794 0 28.3011765V56.912c.0263242 3.6437361 2.9736757 6.5910876 6.61741176 6.6174118H41.0287059c3.6433194-.0273198 6.590092-2.9740924 6.6174117-6.6174118V28.3011765c-.0255826-3.6475811-2.9699336-6.6015638-6.6174117-6.6390589h-1.7204706v-6.1769411C39.2894511 6.9407424 32.3674929.01878418 23.8230588 0z"/>
</svg>
