<svg xmlns="http://www.w3.org/2000/svg" width="64" height="56">
  <g fill-rule="evenodd">
    <path d="M38.3060645 37.152L25.9189678 37.152 25.9189678 28.096 19.7254193 28.096 19.7254193 43.3455484 44.4996129 43.3455484 44.4996129 28.096 38.3060645 28.096"/>
    <path d="M0,7.99367773 C0,3.57889143 3.57805502,0 8.0085154,0 L55.9914846,0 C60.4144655,0 64,3.5882405 64,7.99367773 L64,48.0063223 C64,52.4211086 60.421945,56 55.9914846,56 L8.0085154,56 C3.58553448,56 0,52.4117595 0,48.0063223 L0,7.99367773 Z M44.3434836,6.20283871 C44.3434836,6.20283871 44.3341929,12.6736429 44.3434832,12.8398364 C44.502451,16.105901 47.3731609,18.5486451 50.649548,18.5486451 C53.5450319,18.5486451 55.9821932,16.5708387 56.6552254,13.7063226 L56.6552254,9.30064516 C56.6562577,7.5912258 55.2668384,6.20283871 53.5594836,6.20283871 L44.3434836,6.20283871 Z M25.5886451,6.20180645 L38.231742,6.20180645 C38.231742,6.20180645 38.1047742,12.9775484 38.1027097,13.0012903 C37.943742,16.1383226 35.2299355,18.5981936 31.9256774,18.5981936 C28.6492903,18.5981936 25.9643871,16.2033549 25.7104516,12.9001291 C25.7228387,12.7101936 25.5886451,6.20180645 25.5886451,6.20180645 Z M19.6510967,6.20283871 C19.6510967,6.20283871 19.6603874,12.6736429 19.651097,12.8398364 C19.4921293,16.105901 16.6214193,18.5486451 13.3450322,18.5486451 C10.4495484,18.5486451 8.01238709,16.5708387 7.33935484,13.7063226 L7.33935484,9.30064516 C7.33832258,7.5912258 8.72774193,6.20283871 10.4350967,6.20283871 L19.6510967,6.20283871 Z M53.7899355,49.5390967 L10.4350967,49.5390967 C8.72774193,49.5390967 7.33832258,48.151742 7.33832258,46.4423226 L7.33832258,23.1958709 C9.12412903,24.183742 11.1566451,24.7886451 13.344,24.7886451 C17.047742,24.7886451 20.3375484,23.1318709 22.6105807,20.5470967 C24.8805162,23.0998709 28.1971613,24.7370322 31.9246451,24.7370322 C35.6449033,24.7370322 38.9532903,23.0998709 41.2149678,20.5470967 C43.4910967,23.1318709 46.7932903,24.7886451 50.5052903,24.7886451 C52.8423226,24.7886451 55.0172903,24.119742 56.8867097,22.9925162 L56.8867097,46.4423226 C56.8867097,48.151742 55.4983226,49.5390967 53.7899355,49.5390967 Z"/>
  </g>
</svg>
