<svg xmlns="http://www.w3.org/2000/svg" width="65" height="50">
  <path fill-rule="evenodd" d="M24.4383955,59.6476141 C22.3726987,59.6454969 20.6996166,57.9696182 20.7009493,55.9039207 C20.702282,53.8382233 22.3775251,52.1645048 24.443223,52.165053 C26.5089208,52.1656012 28.1832754,53.8402086 28.1835117,55.9059064 C28.180448,57.9724548 26.5049458,59.6464321 24.4383955,59.6476141 L24.4383955,59.6476141 L24.4383955,59.6476141 Z M40.8691874,28.2346532 C42.9366164,28.2355946 44.6118355,29.9123402 44.6108943,31.9797691 C44.6099529,34.0471981 42.9332076,35.7224175 40.8657786,35.7214763 C38.7983496,35.7205351 37.1231302,34.0437898 37.1240712,31.9763609 C37.1274347,29.909937 38.8027613,28.2361351 40.8691874,28.2346532 L40.8691874,28.2346532 L40.8691874,28.2346532 Z M20.69754,8.05363233 C20.6973677,6.53896903 21.6096689,5.17336142 23.0090024,4.59364525 C24.4083359,4.0139291 26.0190972,4.33428181 27.0901258,5.40531051 C28.1611546,6.47633922 28.4815073,8.08710046 27.9017911,9.48643394 C27.322075,10.8857674 25.9564673,11.7980687 24.441804,11.7978964 C22.374099,11.797426 20.6980103,10.1213374 20.69754,8.05363233 L20.69754,8.05363233 L20.69754,8.05363233 Z M8.01186427,35.721477 C5.94443527,35.7224181 4.26769003,34.0471986 4.26674886,31.9797696 C4.2658077,29.9123407 5.94102701,28.2355953 8.00845601,28.234654 C10.075885,28.2337127 11.7526305,29.9089319 11.7535719,31.9763609 C11.7515935,34.0425812 10.0780819,35.7176172 8.01186427,35.721477 L8.01186427,35.721477 L8.01186427,35.721477 Z M48.893706,31.9797694 C48.8872732,28.3611672 46.4632716,25.1931168 42.9722469,24.2407147 L31.162562,12.4310298 C33.3854888,9.03469896 32.7251563,4.51368814 29.6236887,1.89503096 C26.5222211,-0.72362624 21.9544898,-0.616818299 18.9788099,2.14394174 C16.00313,4.90470177 15.5548345,9.4516358 17.9340788,12.7403534 L6.5905096,24.0839226 C2.74129751,24.7820142 -0.043060123,28.1547582 0.000504140684,32.0665185 C0.0440684044,35.9782786 2.9028489,39.2881765 6.76665329,39.9003702 C10.6304577,40.512564 14.372394,38.2485051 15.6230518,34.5418057 C16.8737095,30.8351062 15.2683301,26.7668379 11.8234467,24.9130462 L21.2999967,15.4364962 C23.4327742,16.3489303 25.8572254,16.2870202 27.9406543,15.2669221 L37.4172043,24.7434721 C34.6819246,26.0429419 32.9122659,28.7727629 32.8425303,31.8002229 C32.7727948,34.8276828 34.4148841,37.6360911 37.0874296,39.0601267 L28.7195022,49.1220907 C25.3130906,46.9659743 20.8377478,47.656792 18.240038,50.7397096 C15.6423281,53.8226272 15.7204981,58.3502989 18.4230809,61.3417073 C21.1256636,64.3331157 25.6221858,64.8690347 28.9521391,62.5966154 C32.2820922,60.324196 33.4222192,55.9417273 31.6218607,52.334625 L41.9403162,39.9250398 C45.9191568,39.3886388 48.8894851,35.9946019 48.893706,31.9797694 L48.893706,31.9797694 L48.893706,31.9797694 Z" transform="rotate(90 31.763 32.305)"/>
</svg>
