<?xml version="1.0" encoding="UTF-8" standalone="no"?>
<svg width="64px" height="51px" viewBox="0 0 64 51" version="1.1" xmlns="http://www.w3.org/2000/svg" xmlns:xlink="http://www.w3.org/1999/xlink">
    <!-- Generator: Sketch 39.1 (31720) - http://www.bohemiancoding.com/sketch -->
    <title>ad</title>
    <desc>Created with Sketch.</desc>
    <defs></defs>
    <g id="Page-1" stroke="none" stroke-width="1" fill="none" fill-rule="evenodd">
        <g id="ad" fill="#000000">
            <g id="Page-1">
                <g>
                    <g>
                        <g id="ad">
                            <g id="AD">
                                <path d="M57.5278545,39.4088727 L19.1732364,29.3538909 L19.1732364,21.3585455 L57.5278545,8.81338182 L57.5278545,39.4088727 L57.5278545,39.4088727 L57.5278545,39.4088727 Z M27.1685818,44.6091636 C21.6827609,44.5933872 17.018924,40.5994746 16.1594182,35.1813818 L35.8632727,40.3269818 C33.7835429,43.0225653 30.5731988,44.603677 27.1685818,44.6091636 L27.1685818,44.6091636 L27.1685818,44.6091636 Z M6.39069091,22.2452364 L12.7825455,22.2452364 L12.7825455,28.6184727 L6.39069091,28.6184727 L6.39069091,22.2452364 L6.39069091,22.2452364 L6.39069091,22.2452364 Z M63.9185455,0 L15.4728727,15.8545455 L0,15.8545455 L0,35.0138182 L9.664,35.0138182 C10.5026261,44.0603139 18.0833183,50.9853869 27.1685818,51.0045091 C33.4852542,51.0018069 39.3044791,47.5764542 42.3726545,42.0549818 L63.936,47.6951273 L63.936,0 L63.9185455,0 L63.9185455,0 L63.9185455,0 Z" id="Shape"></path>
                            </g>
                        </g>
                    </g>
                </g>
            </g>
        </g>
    </g>
</svg>