<svg xmlns="http://www.w3.org/2000/svg" data-name="Слой 1" viewBox="0 0 54.00357 52.82925">
  <path d="M63.18,32.688L39.852,13.238a3.7786,3.7786,0,0,0-4.704,0L11.824,32.684a3.67487,3.67487,0,0,0-.469,5.171,3.67134,3.67134,0,0,0,5.172.469L33.852,23.883,33.809,61.574a3.67885,3.67885,0,0,0,3.668,3.672h0.007a3.672,3.672,0,0,0,3.668-3.664L41.195,23.91,58.488,38.324a3.67331,3.67331,0,0,0,5.168-.472,3.63227,3.63227,0,0,0,.836-2.68A3.68306,3.68306,0,0,0,63.18,32.688Z" transform="translate(-10.504 -12.417)"/>
</svg>
