<?xml version="1.0" encoding="UTF-8" standalone="no"?>
<svg width="64px" height="47px" viewBox="0 0 64 47" version="1.1" xmlns="http://www.w3.org/2000/svg" xmlns:xlink="http://www.w3.org/1999/xlink">
    <!-- Generator: Sketch 39.1 (31720) - http://www.bohemiancoding.com/sketch -->
    <title>envelope</title>
    <desc>Created with Sketch.</desc>
    <defs></defs>
    <g id="Page-1" stroke="none" stroke-width="1" fill="none" fill-rule="evenodd">
        <g id="envelope" fill="#000000">
            <g id="Shape">
                <path d="M57.9710145,16.8115942 L31.884058,28.9855072 L5.79710145,16.8115942 L5.79710145,37.6811594 C5.79675185,38.45001 6.10202172,39.1874709 6.64568123,39.7311304 C7.18934074,40.2747899 7.9268016,40.5800597 8.69565217,40.5797101 L55.0724638,40.5797101 C55.8413143,40.5800597 56.5787752,40.2747899 57.1224347,39.7311304 C57.6660942,39.1874709 57.9713641,38.45001 57.9710145,37.6811594 L57.9710145,16.8115942 L57.9710145,16.8115942 Z M57.9710145,8.69565217 C57.9713641,7.9268016 57.6660942,7.18934074 57.1224347,6.64568123 C56.5787752,6.10202172 55.8413143,5.79675185 55.0724638,5.79710145 L8.69565217,5.79710145 C7.9268016,5.79675185 7.18934074,6.10202172 6.64568123,6.64568123 C6.10202172,7.18934074 5.79675185,7.9268016 5.79710145,8.69565217 L5.79710145,10.4347826 L31.884058,22.6086957 L57.9710145,10.4347826 L57.9710145,8.69565217 L57.9710145,8.69565217 Z M55.0724638,46.3768116 L8.69565217,46.3768116 C6.38919553,46.37755 4.17699332,45.4616407 2.5460821,43.8307295 C0.915170888,42.1998183 -0.000738420623,39.9876161 5.29395592e-23,37.6811594 L5.29395592e-23,8.69565217 C-0.000738420623,6.38919553 0.915170888,4.17699332 2.5460821,2.5460821 C4.17699332,0.915170888 6.38919553,-0.000738420623 8.69565217,5.29395592e-23 L55.0724638,5.29395592e-23 C57.3789204,-0.000738420623 59.5911226,0.915170888 61.2220338,2.5460821 C62.8529451,4.17699332 63.7688544,6.38919553 63.7681159,8.69565217 L63.7681159,37.6811594 C63.7688544,39.9876161 62.8529451,42.1998183 61.2220338,43.8307295 C59.5911226,45.4616407 57.3789204,46.37755 55.0724638,46.3768116 L55.0724638,46.3768116 Z"></path>
            </g>
        </g>
    </g>
</svg>