<?xml version="1.0" encoding="UTF-8" standalone="no"?>
<svg width="48px" height="64px" viewBox="0 0 48 64" version="1.1" xmlns="http://www.w3.org/2000/svg" xmlns:xlink="http://www.w3.org/1999/xlink">
    <!-- Generator: Sketch 39.1 (31720) - http://www.bohemiancoding.com/sketch -->
    <title>lock</title>
    <desc>Created with Sketch.</desc>
    <defs></defs>
    <g id="Page-1" stroke="none" stroke-width="1" fill="none" fill-rule="evenodd">
        <g id="lock" fill="#000000">
            <g id="Shape">
                <g>
                    <path d="M23.9557647,34.4781176 C21.9104903,34.4250701 20.056828,35.6755283 19.3400489,37.591824 C18.6232698,39.5081197 19.2012678,41.6681262 20.7792941,42.9703529 L20.7792941,50.0291765 C20.7366833,51.1443438 21.3073219,52.1935302 22.2666082,52.7637789 C23.2258946,53.3340276 24.4202231,53.3340276 25.3795094,52.7637789 C26.3387958,52.1935302 26.9094344,51.1443438 26.8668235,50.0291765 L26.8668235,42.9703529 C28.4072618,41.6989976 28.9984375,39.6060075 28.3507699,37.7166105 C27.7031023,35.8272135 25.9522166,34.5370601 23.9557647,34.4781176 L23.9557647,34.4781176 Z M6.61741176,27.7722353 L41.0287059,27.7722353 C41.174068,27.7532387 41.3200144,27.802786 41.4237671,27.9063544 C41.5275197,28.0099227 41.5773263,28.1557808 41.5585882,28.3011765 L41.5585882,56.912 C41.5773263,57.0573957 41.5275197,57.2032538 41.4237671,57.3068221 C41.3200144,57.4103905 41.174068,57.4599377 41.0287059,57.4409412 L6.61741176,57.4409412 C6.47219486,57.4592852 6.32664665,57.4095245 6.22305481,57.3061166 C6.11946298,57.2027088 6.06944362,57.0572493 6.08752941,56.912 L6.08752941,28.3011765 C6.06944362,28.1559272 6.11946298,28.0104677 6.22305481,27.9070598 C6.32664665,27.803652 6.47219486,27.7538913 6.61741176,27.7722353 L6.61741176,27.7722353 Z M23.8230588,6.08847059 C26.3222088,6.06544156 28.7257014,7.04805201 30.4929423,8.81529296 C32.2601833,10.5825339 33.2427937,12.9860265 33.2197647,15.4851765 L33.2197647,21.6621176 L14.4263529,21.6621176 L14.4263529,15.4851765 C14.4033239,12.9860265 15.3859344,10.5825339 17.1531753,8.81529296 C18.9204163,7.04805201 21.3239088,6.06544156 23.8230588,6.08847059 L23.8230588,6.08847059 Z M23.8230588,0 C15.2786248,0.0187841803 8.35666653,6.94074241 8.33788235,15.4851765 L8.33788235,21.6621176 L6.61741176,21.6621176 C2.96951445,21.6986172 0.0245857739,24.6531794 -7.88504817e-16,28.3011765 L-7.88504817e-16,56.912 C0.0263242114,60.5557361 2.97367571,63.5030876 6.61741176,63.5294118 L41.0287059,63.5294118 C44.6720253,63.502092 47.6187979,60.5553194 47.6461176,56.912 L47.6461176,28.3011765 C47.620535,24.6535954 44.676184,21.6996127 41.0287059,21.6621176 L39.3082353,21.6621176 L39.3082353,15.4851765 C39.2894511,6.94074241 32.3674929,0.0187841803 23.8230588,0 L23.8230588,0 Z"></path>
                </g>
            </g>
        </g>
    </g>
</svg>