<?xml version="1.0" encoding="UTF-8" standalone="no"?>
<svg width="64px" height="64px" viewBox="0 0 64 64" version="1.1" xmlns="http://www.w3.org/2000/svg" xmlns:xlink="http://www.w3.org/1999/xlink">
    <!-- Generator: Sketch 39.1 (31720) - http://www.bohemiancoding.com/sketch -->
    <title>user</title>
    <desc>Created with Sketch.</desc>
    <defs></defs>
    <g id="Page-1" stroke="none" stroke-width="1" fill="none" fill-rule="evenodd">
        <g id="user" fill="#000000">
            <path d="M32,18.11968 C34.6620419,18.1194444 36.8202443,20.2772647 36.82048,22.9393067 C36.8207156,25.6013486 34.6628953,27.759551 32.0008533,27.7597866 C29.3388114,27.7600223 27.180609,25.6022019 27.1803733,22.94016 C27.1816912,20.2787617 29.3386019,18.1214691 32,18.11968 M32,33.0965333 C36.1067392,33.0967059 39.8091904,30.6229759 41.3808511,26.8288766 C42.9525119,23.0347773 42.0838584,18.6675213 39.1799552,15.7636181 C36.2760521,12.859715 31.908796,11.9910614 28.1146967,13.5627222 C24.3205974,15.134383 21.8468674,18.8368341 21.84704,22.9435733 C21.8525202,28.5486268 26.3949466,33.0910532 32,33.0965333" id="Shape"></path>
            <path d="M15.34976,52.6600533 C18.7400533,47.2430933 24.7995733,41.6896 32.4002133,41.6896 C39.4197333,41.6896 45.71648,46.6304 49.4199467,52.02688 C39.782286,60.6338261 25.3005647,60.9029599 15.34976,52.6600533 M5.33333333,32 C5.33333333,17.2724067 17.2724067,5.33333333 32,5.33333333 C46.7275933,5.33333333 58.6666667,17.2724067 58.6666667,32 C58.6445598,37.8196232 56.7006518,43.4689557 53.1370667,48.0699733 C48.7432533,42.12992 41.4301867,36.3562667 32.4002133,36.3562667 C23.0869333,36.3562667 15.8464,42.3236267 11.4833067,48.8200533 C7.53381716,44.1025357 5.35827233,38.1524644 5.33333333,32 M32,0 C14.326888,-1.082166e-15 2.164332e-15,14.326888 0,32 C-2.164332e-15,49.673112 14.326888,64 32,64 C49.673112,64 64,49.673112 64,32 C63.980286,14.3350603 49.6649397,0.0197140093 32,0" id="Shape"></path>
        </g>
    </g>
</svg>